# xmcd
# 
# Track frame offsets:
#     150
#     11978
#     23752
#     36040
#     49841
#     66057
#     78880
#     92970
#     111996
#     124379
#     138912
#     152817
#     164858
#     179151
#     191803
#     206240
#     223138
#     240555
#     252637
#     269453
# 
# Disc length: 3896
# 
# Revision: 0
# Processed by: cddbd v1.5.2PL0 Copyright (c) Steve Scherf et al.
# Submitted via: fre:ac v1.0.27
# 
DISCID=3b0f3614
DTITLE=Johnny Paycheck - Take This Job And Shove It: The Definitive Collection- cd2 of 2
DYEAR=2016
DGENRE=Country
TTITLE0=Take This Job And Shove It
TTITLE1=Me And The I.R.S.
TTITLE2=Georgia In A Jug
TTITLE3=The Spirits Of St Louis
TTITLE4=Colorado Cool-Aid
TTITLE5=Proud Mary
TTITLE6=Friend, Lover, Wife
TTITLE7=Thanks To The Cathouse (I'm In The Doghouse With You)
TTITLE8=Look What The Dog Drug In
TTITLE9=You Can Have Her
TTITLE10=Drinkin' And Drivin'
TTITLE11=Fifteen Beers
TTITLE12=(Stay Away From) The Cocaine Train
TTITLE13=You Better Move On
TTITLE14=Someone Told My Story
TTITLE15=I Can't Hold Myself In Line
TTITLE16=Yesterday's News (Just Hit Home Today)
TTITLE17=DOA (Drunk On Arrival)
TTITLE18=In Memery Of A Memory
TTITLE19=The Outlaw's Prayer
EXTD=
EXTT0=
EXTT1=
EXTT2=
EXTT3=
EXTT4=
EXTT5=
EXTT6=
EXTT7=
EXTT8=
EXTT9=
EXTT10=
EXTT11=
EXTT12=
EXTT13=
EXTT14=
EXTT15=
EXTT16=
EXTT17=
EXTT18=
EXTT19=
PLAYORDER=
